<?xml version="1.0" standalone="no"?>
<!DOCTYPE svg PUBLIC "-//W3C//DTD SVG 20010904//EN"
 "http://www.w3.org/TR/2001/REC-SVG-20010904/DTD/svg10.dtd">
<svg version="1.0" xmlns="http://www.w3.org/2000/svg"
 width="452.000000pt" height="452.000000pt" viewBox="0 0 452.000000 452.000000"
 preserveAspectRatio="xMidYMid meet">
<metadata>
Created by potrace 1.14, written by Peter Selinger 2001-2017
</metadata>
<g transform="translate(0.000000,452.000000) scale(0.100000,-0.100000)"
fill="#000000" stroke="none">
<path d="M1585 3806 l-217 -435 132 -248 c194 -363 200 -373 230 -428 15 -27
48 -88 73 -135 91 -173 141 -267 179 -333 21 -38 38 -70 38 -73 0 -2 24 -47
53 -101 30 -54 82 -152 117 -218 34 -66 70 -133 80 -150 10 -16 39 -70 65
-120 26 -49 66 -124 88 -165 84 -157 143 -267 162 -303 11 -20 24 -38 30 -38
43 -5 898 -3 901 3 4 6 -9 31 -89 178 -16 30 -43 80 -60 110 -16 30 -44 82
-62 115 -18 33 -49 90 -69 127 -51 97 -98 184 -136 253 -18 33 -48 89 -68 125
-19 36 -121 225 -227 420 -106 195 -212 391 -235 435 -24 44 -58 106 -77 138
-18 32 -33 60 -33 62 0 2 -84 158 -186 347 -103 188 -201 370 -219 403 -50 92
-104 192 -151 280 -23 44 -56 104 -72 133 l-29 53 -218 -435z"/>
<path d="M993 2748 c-18 -35 -53 -101 -79 -148 -715 -1304 -851 -1558 -874
-1635 -35 -120 -44 -230 -25 -320 29 -140 170 -270 367 -337 63 -21 68 -22
1041 -23 537 -1 977 0 977 3 0 2 -85 176 -188 386 l-189 381 -516 0 c-285 0
-517 1 -517 4 0 2 22 42 48 90 27 47 63 111 80 141 16 30 111 199 211 374
l180 319 -26 44 c-14 25 -119 209 -233 411 -113 201 -211 367 -216 369 -5 2
-24 -25 -41 -59z"/>
<path d="M3886 833 c-1 -2 -257 -3 -569 -3 -385 0 -567 -4 -567 -11 0 -6 17
-39 38 -74 l37 -65 847 0 847 0 -41 73 c-23 39 -43 74 -45 77 -4 4 -542 7
-547 3z"/>
<path d="M3857 423 c-1 -1 -206 -3 -455 -5 -248 -1 -452 -4 -452 -7 0 -2 14
-26 30 -53 17 -26 30 -52 30 -57 0 -30 33 -32 522 -32 271 0 503 0 516 0 l23
1 -31 58 c-51 93 -51 93 -120 95 -34 1 -62 1 -63 0z"/>
</g>
</svg>
